<svg width="571" height="190" viewBox="0 0 571 190" fill="none" xmlns="http://www.w3.org/2000/svg">
<path d="M150.637 5.75999C151.057 6.17999 151.547 6.53 152.177 7.16L151.477 7.86C150.847 7.29999 150.357 6.87999 149.797 6.31999C149.167 6.59999 148.467 6.80999 147.767 7.08999L145.807 5.75999C143.287 6.53 141.887 8.62999 140.277 10.45L137.127 13.6C136.287 14.3 135.237 14.79 135.167 16.05L134.467 16.75C133.137 17.94 131.667 18.99 130.407 20.32C129.007 21.79 127.747 23.4 126.417 25.01C125.087 26.2 124.107 27.6 123.337 29.14C124.177 28.37 124.877 27.46 125.647 26.62C125.927 26.27 126.487 26.06 126.907 25.85C126.627 26.48 126.417 27.18 126.067 27.74C119.767 38.38 112.417 48.46 105.487 58.68C97.9968 69.81 90.5768 81.01 83.9968 92.63C79.8668 99.91 76.0168 107.33 72.1668 114.68C70.4168 117.97 68.8768 121.26 67.1968 124.62L66.6368 123.64L63.3468 129.94L57.4668 141.49C56.9068 142.47 56.3468 143.38 56.6268 144.57C56.6968 145.2 56.3468 145.83 56.2068 146.46C55.8568 147.51 55.5068 148.56 55.3668 149.75C56.2068 147.93 57.1168 146.18 57.9568 144.43C58.0968 144.5 58.1668 144.5 58.2368 144.57C57.7468 145.9 57.1868 147.16 56.6968 148.49C53.1268 158.22 49.5568 167.88 45.9168 177.54C45.3568 179.08 44.7268 180.55 44.0268 182.02C42.8368 184.26 41.7168 184.33 39.9668 182.44C39.6868 182.58 39.4068 182.65 39.1968 182.72C38.0768 182.02 37.7268 181.11 37.7268 179.99C37.7968 173.9 37.7968 167.88 37.8668 161.86C37.8668 159.97 38.1468 158.08 38.2868 156.12L38.7068 156.54C38.7068 153.88 38.7768 151.29 38.7068 148.63C38.6368 147.02 38.4968 145.41 38.9168 143.8C39.1268 143.1 39.0568 142.33 38.9868 141.63C38.9868 139.39 38.6368 137.08 39.7568 134.7C39.4768 134.63 39.2668 134.63 39.0568 134.63C39.3368 126.86 39.6168 119.02 39.9668 110.97C38.6368 111.6 38.2868 112.65 37.6568 113.56L36.8168 115.03V113.7C36.1868 114.89 35.6968 115.73 35.2768 116.57C34.6468 117.06 34.0868 117.62 34.2968 118.53L33.7368 119.72C33.5968 119.72 33.2468 119.65 33.1768 119.72C32.6168 120.63 31.9868 121.54 31.2168 122.73C31.8468 122.52 32.1268 122.52 32.3368 122.45L28.7668 128.96L20.7868 144.5L19.8768 146.25C19.6668 146.18 19.4568 146.04 19.2468 145.9C18.9668 146.32 18.6168 146.74 18.1968 147.23C18.1968 146.95 18.1268 146.81 18.1968 146.67C19.9468 143.24 21.6268 139.74 23.3768 136.31C23.5868 135.82 23.7268 135.4 23.5868 134.77C22.6768 136.17 21.6968 137.57 20.8568 138.97C20.1568 140.16 19.5968 141.42 18.8268 142.54C17.6368 144.29 17.4968 146.39 16.9368 148.28C16.3068 150.52 15.7468 152.69 15.1868 154.93C15.2568 155.35 15.2568 155.7 15.2568 156.12C14.6268 157.59 14.0668 159.13 13.3668 160.6C11.6168 164.45 9.86684 168.23 8.04684 172.01C7.62684 172.92 7.13684 173.83 6.01684 174.32C5.73684 173.97 5.38684 173.69 4.96684 173.27C4.61684 173.55 4.33684 173.76 4.05684 174.04C3.91684 173.97 3.77684 173.83 3.56684 173.76C1.32684 173.48 0.836837 171.87 0.766837 169.98C0.556836 167.53 0.416836 165.01 0.346836 162.49C0.206837 149.54 0.0668364 136.59 0.0668364 123.64C-0.0031637 116.08 0.206837 108.45 0.136837 100.82C0.0668364 98.23 0.766837 95.92 1.32684 93.47C1.53684 92.77 2.16684 92.21 2.58684 91.51C5.10684 92.21 6.64684 93.96 8.39684 95.5C8.18684 95.78 8.11684 95.99 7.83684 96.27C7.97684 96.62 8.18684 97.04 8.46684 97.6C8.53684 98.93 7.34684 99.42 5.31684 98.72V101.03C5.31684 112.37 5.38684 123.64 5.38684 134.98C5.38684 139.46 4.96684 144.01 4.96684 148.49C5.03684 152.97 5.38684 157.45 5.66684 161.86C5.73684 162.35 5.94684 162.84 6.15684 163.47C8.04684 159.2 9.79684 155.21 11.6168 151.22C17.4268 138.55 23.5868 126.02 30.8668 114.12C31.5668 113 32.2668 111.95 33.5968 111.18C34.7168 110.62 35.3468 109.15 36.1168 108.03C36.7468 107.05 37.3068 106.07 37.9368 105.02C37.8668 105.02 37.8668 105.02 37.8668 104.95C37.7968 104.95 37.7268 105.02 37.6568 105.02H37.3068C37.3068 104.88 37.3068 104.74 37.3768 104.67C38.4268 103.55 39.1268 102.01 41.1568 101.94C41.5068 102.5 42.1368 103.06 42.1368 103.55C42.0668 104.74 42.8368 105.44 43.5368 106C44.6568 106.77 45.0068 107.82 45.0768 109.01C45.2868 110.9 45.4268 112.79 45.4268 114.68C45.4268 115.59 45.1468 116.43 45.0068 117.34C44.8668 118.74 44.5168 120.14 44.5868 121.47C45.0768 127.42 44.5168 133.37 44.3068 139.39C44.2368 141.14 43.6768 142.89 43.6068 144.64C43.5368 148.07 43.7468 151.57 43.7468 155C43.7468 158.08 43.6068 161.09 43.6068 164.1C43.5368 164.73 43.5368 165.36 43.8868 166.06C44.9368 163.54 45.9168 160.95 46.8968 158.43C49.5568 151.71 52.0768 144.92 54.8768 138.27C58.2368 130.57 61.8768 123.01 65.4468 115.38C66.2168 113.7 66.9868 112.02 67.9668 110.48C70.1368 107.05 71.5368 103.2 73.6368 99.77C75.6668 96.27 77.4868 92.7 79.4468 89.2C80.8468 86.68 82.3868 84.23 83.8568 81.78C84.0668 81.43 84.2068 81.08 84.4868 80.8C85.8868 79.47 86.5868 77.79 87.4968 76.25C92.4668 67.64 98.0668 59.45 103.807 51.33C108.427 44.75 112.977 38.03 117.737 31.52C123.127 24.03 128.727 16.75 134.957 9.96C137.197 7.44 139.647 5.19999 142.097 2.88999C142.937 2.12 144.057 1.55999 145.107 0.999997C146.227 0.439987 147.417 0.509999 148.467 1.27999C149.517 2.12 150.427 3.09999 151.547 4.14999L150.637 5.75999ZM90.0168 76.67C91.4168 74.92 92.6068 72.89 92.6068 71.63L89.6668 76.39C89.7368 76.46 89.8768 76.53 90.0168 76.67ZM85.4668 83.53C86.0268 83.18 86.6568 82.76 86.5168 81.64C86.0968 82.48 85.7468 83.04 85.4668 83.53ZM83.7868 89.27C84.3468 87.8 84.7668 86.33 84.8368 84.79C78.8868 95.01 73.1468 105.3 67.7568 115.87C67.9668 115.03 68.2468 114.19 68.5268 113.35C66.4268 116.29 64.9568 119.51 64.1868 123.36C64.6068 122.94 64.7468 122.87 64.8868 122.73C65.8668 121.26 66.8468 119.79 67.8968 118.32C68.6668 117.2 69.7868 116.15 70.4168 114.89C72.1668 111.74 73.7068 108.59 75.3168 105.37L76.0168 104.25C76.5768 103.27 77.1368 102.36 77.6268 101.38C77.9768 100.75 78.1868 100.05 78.5368 99.42C80.4268 96.13 82.5268 92.91 83.7868 89.27ZM39.2668 103.55C39.8968 103.69 40.5268 103.9 41.4368 104.11L40.3868 102.85C39.8968 103.13 39.5468 103.34 39.2668 103.55ZM27.7168 128.96C28.2068 128.54 28.5568 128.05 28.4168 127.28C28.0668 127.77 27.7168 128.26 27.3668 128.82C27.5768 128.89 27.7168 129.03 27.7168 128.96ZM4.54684 167.53C4.75684 164.8 4.96684 162.07 4.96684 159.27C4.96684 157.24 4.68684 155.14 4.61684 153.04C4.54684 151.92 4.54684 150.8 4.54684 149.68C3.98684 152.06 3.77684 154.37 3.49684 156.68C3.00684 160.46 3.14684 164.31 3.00684 168.16C3.00684 168.51 3.21684 168.86 3.42684 169.7C3.98684 168.65 4.47684 168.09 4.54684 167.53ZM12.5268 154.37C12.6668 154.02 12.7368 153.74 12.8068 153.39C12.1068 153.95 11.6168 154.51 11.2668 155.21L6.85684 164.94C6.15684 166.48 6.01684 167.95 6.71684 169.98C7.20684 168.93 7.55684 168.23 7.83684 167.53C8.18684 166.34 8.39684 165.08 8.81684 163.96C10.0068 160.74 11.2668 157.52 12.5268 154.37ZM3.84684 172.85C5.03684 172.43 4.96684 171.73 4.75684 170.82C4.40684 171.52 4.19684 172.08 3.84684 172.85ZM84.3233 137.08C81.7333 138.9 79.9833 141.49 77.9533 143.87C77.3933 144.57 77.0433 145.48 76.3433 146.67C78.0233 145.76 79.3533 144.99 80.6133 144.01C85.1633 140.58 89.7133 137.15 94.3333 133.72L97.7633 130.99C98.1833 130.71 98.6733 130.57 99.1633 130.29L100.213 132.67C101.123 132.46 101.823 131.48 102.873 132.18C104.133 133.93 103.503 135.68 102.873 137.43C102.453 138.55 101.893 139.6 101.333 140.65L95.4533 152.48C95.2433 152.9 94.9633 153.32 94.6833 153.81C94.0533 153.04 94.5433 152.34 94.7533 151.71C95.1033 150.87 95.4533 150.03 95.8733 149.19C96.7833 147.93 97.5533 146.6 98.0433 145.13C97.0633 146.32 95.8033 147.44 95.8733 149.19C94.9633 149.61 94.6833 150.52 94.2633 151.36C93.7733 152.41 93.2833 153.46 92.6533 154.72L91.5333 153.46C91.3233 153.6 91.0433 153.74 90.6233 153.95C90.3433 153.67 90.0633 153.39 89.7133 153.11C90.0633 151.85 90.8333 150.8 90.4833 149.4C90.4133 149.05 90.7633 148.63 90.9733 148.21L94.2633 141.77C94.4033 141.42 94.5433 141 94.8933 140.23L88.8733 144.5C88.6633 144.5 88.4533 144.5 88.2433 144.57C87.5433 144.36 87.4033 144.43 86.8433 145.34C87.1233 145.27 87.5433 145.2 87.8933 145.2C88.4533 145.41 88.8033 145.13 89.0833 144.71C89.7133 144.43 90.3433 144.22 91.3233 143.87C88.2433 146.6 85.0933 148.63 81.9433 150.59C80.2633 151.64 78.5133 152.48 76.7633 153.39C74.5933 154.51 72.4233 154.16 70.3233 153.32C69.2733 152.9 68.8533 152.06 68.9233 150.87C68.9933 148.42 69.7633 146.18 71.0233 144.22C72.5633 141.98 74.1033 139.81 75.8533 137.78C79.5633 133.51 83.6933 129.66 88.3833 126.44C90.0633 125.32 91.9533 124.55 93.9133 124.06C94.7533 123.85 95.4533 123.29 96.2933 122.87C97.1333 122.45 97.9733 121.96 98.8833 121.75C100.353 121.33 101.333 122.31 102.243 123.36C101.963 123.29 101.683 123.15 101.263 123.01C101.193 123.36 101.053 123.71 100.983 124.2C101.613 124.27 102.243 124.41 102.803 124.48C104.203 125.88 104.623 127.42 103.783 129.31C102.243 130.01 102.103 129.94 101.193 128.61C100.913 128.75 100.563 128.89 100.213 129.1C100.003 128.89 99.7233 128.75 99.5133 128.54C99.3733 128.33 99.3033 128.12 99.0933 127.7C98.1833 128.12 97.2733 128.4 96.5033 128.89C93.8433 130.57 91.1133 132.32 88.5233 134.07C87.0533 134.98 85.7233 136.1 84.3233 137.08ZM86.6333 145.48L86.0733 145.69C86.1433 145.76 86.2133 145.83 86.2133 145.97L86.6333 145.48ZM78.3033 148.28L76.6933 149.05C77.1133 149.19 77.3933 149.33 77.6733 149.4C77.8133 149.12 77.9533 148.84 78.3033 148.28ZM74.1033 150.45C75.2233 150.87 75.5733 150.73 75.3633 150.17C74.9433 150.31 74.5233 150.38 74.1033 150.45ZM116.691 155.91C116.481 155.77 116.341 155.56 116.201 155.35L115.501 155.84C114.241 155.49 114.311 154.51 114.311 153.53C114.381 150.52 113.681 147.58 112.141 144.99C111.091 143.17 109.761 141.56 108.501 139.81C107.941 139.04 107.311 138.34 106.681 137.64C104.931 135.54 104.861 133.3 106.191 130.92C106.261 130.85 106.401 130.71 106.401 130.64C106.821 127.98 108.921 126.79 110.951 125.88C113.961 124.55 117.181 123.57 120.261 122.45C120.401 122.38 120.611 122.45 120.961 122.45C119.491 123.99 117.531 124.48 116.061 125.74C117.741 125.18 119.491 124.62 121.171 123.99C121.451 123.92 121.591 123.71 121.871 123.64C124.671 123.08 125.861 120.91 126.841 118.53L127.611 117.69C127.541 117.62 127.471 117.62 127.471 117.55C127.261 117.62 127.051 117.76 126.841 117.83C127.261 116.85 127.611 115.8 128.101 114.89C131.531 108.52 134.961 102.15 138.461 95.78C138.811 95.15 139.231 94.66 139.721 93.89C140.141 94.52 140.491 94.94 140.841 95.5C141.191 95.15 141.541 94.73 141.891 94.31C143.011 94.66 143.921 95.36 143.851 96.62C143.781 97.53 143.431 98.51 143.011 99.28C141.681 101.59 140.071 103.83 138.811 106.14C136.641 110.06 134.681 114.12 132.581 118.11C132.301 118.67 132.091 119.3 131.741 120C132.931 120.14 133.981 120.28 135.031 120.49C138.251 120.91 140.351 122.94 142.171 125.46C142.311 125.67 142.381 126.02 142.381 126.3C142.381 126.65 142.241 127 142.241 127.35C142.241 127.7 142.381 127.98 142.521 128.33C141.751 129.1 140.981 129.31 140.141 128.54C139.791 128.26 139.511 128.12 139.021 128.26C138.671 128.33 138.111 127.84 137.831 127.42C137.131 126.3 136.151 125.95 134.891 126.09C132.861 126.23 130.761 126.44 128.521 126.65C127.191 130.01 125.931 133.23 124.741 136.45C122.711 142.12 120.751 147.79 119.771 153.67C119.701 154.23 119.491 154.79 119.281 155.35C118.721 156.68 117.811 156.89 116.691 155.91ZM117.181 142.89L121.801 128.75C117.111 129.52 112.001 132.04 110.741 134.21C112.841 137.08 115.011 139.95 117.181 142.89ZM107.941 135.54C108.151 134.84 108.431 134.07 107.661 133.3C106.751 134.21 107.451 134.84 107.941 135.54ZM145.499 151.99C144.239 152.06 143.049 152.13 141.929 151.5C141.649 151.36 141.299 151.29 141.019 151.29C138.009 151.01 136.889 149.47 137.519 146.53C137.589 146.11 137.729 145.69 137.729 145.27C137.589 142.68 138.569 140.51 140.039 138.41C140.319 137.99 140.459 137.57 140.739 137.15C141.159 136.8 141.719 136.45 141.579 135.75C141.649 135.68 141.649 135.61 141.789 135.54C142.629 135.19 143.259 134.56 143.469 133.58L145.079 132.11C145.289 132.04 145.569 131.97 145.779 131.83C147.109 130.71 148.509 129.66 149.839 128.54C150.469 128.05 150.959 127.56 151.519 127.07C151.659 126.93 151.869 126.86 151.869 126.79C151.729 125.39 152.849 125.32 153.619 124.9C155.929 123.57 158.379 122.8 160.969 122.24C161.669 122.1 162.439 122.17 163.209 122.1C163.769 122.1 164.259 122.24 164.609 122.66C165.169 123.36 166.009 123.57 166.849 123.71C169.439 124.13 171.119 126.93 170.419 129.38C170.209 130.01 170.069 130.71 169.229 130.92C168.669 131.06 168.389 130.92 167.619 129.94C167.409 130.08 167.269 130.15 166.919 130.43C166.709 130.08 166.429 129.8 166.289 129.45C166.149 129.24 166.289 128.96 166.219 128.68C166.149 127.35 165.659 126.86 164.329 126.93C162.509 127 160.759 127.42 159.079 128.12C157.819 128.61 156.559 129.1 155.439 129.8C151.869 131.97 148.299 134.21 145.499 137.43C143.749 139.46 142.349 141.7 141.369 144.22C141.089 144.92 141.019 145.76 140.809 146.67C141.579 146.81 142.209 147.02 142.769 146.95C148.929 146.6 154.529 144.64 159.429 140.79C160.689 139.81 161.599 138.55 162.789 137.29C163.209 137.85 164.259 137.64 164.749 138.48C165.379 138.41 165.449 138.97 165.589 139.39C165.659 139.88 165.729 140.37 165.589 140.79C165.169 142.19 164.189 143.24 163.209 144.29C160.969 146.6 158.239 148.14 155.299 149.4C152.219 150.73 148.929 151.71 145.499 151.99ZM139.829 149.96C139.129 148.77 138.709 147.93 138.149 147.02C137.869 148.7 138.079 149.05 139.829 149.96ZM187.514 113.28C186.044 117.06 184.644 120.91 183.174 124.69C183.104 125.04 183.034 125.32 182.824 126.02C185.554 124.2 187.304 121.54 190.384 121.05C190.104 121.4 189.754 121.61 189.124 122.24L193.254 121.54C194.234 121.4 194.724 121.54 195.354 122.38C196.474 124.06 197.034 125.95 196.684 127.98C196.404 130.01 195.984 131.97 195.494 134C193.954 139.53 192.484 145.13 190.944 150.66C190.244 153.18 189.404 155.7 188.634 158.22C188.354 158.99 188.074 159.69 187.654 160.67C187.374 160.04 187.024 159.69 186.604 159.06C186.324 159.76 186.044 160.25 185.694 160.74C185.624 160.81 185.484 160.74 185.414 160.74C185.414 160.46 185.344 160.18 185.414 159.97C185.764 159.2 186.044 158.43 186.604 157.73C187.724 156.12 188.074 154.16 188.704 152.34C189.474 150.1 190.314 147.86 191.014 145.55C191.364 144.22 192.204 142.96 192.134 141.42C192.064 140.37 192.764 139.46 193.044 138.48C193.954 135.68 194.934 132.81 194.934 129.87C195.004 128.47 194.864 127 194.794 125.6C194.024 126.16 194.234 126.93 194.094 127.7C193.394 131.69 192.204 135.54 191.014 139.39C189.404 144.5 187.864 149.61 186.254 154.72C186.114 155.42 185.764 156.05 185.414 157.1C185.414 156.19 185.414 155.63 185.484 154.65C184.784 156.12 184.154 157.38 183.454 158.92C183.384 158.29 183.314 158.01 183.314 157.73C184.154 155.42 184.924 153.04 185.624 150.66L186.884 146.32C187.864 142.89 188.984 139.46 189.894 136.1C190.594 133.58 190.944 130.92 191.434 128.47C191.644 127.35 191.644 126.23 191.084 125.25C189.894 125.32 189.124 126.16 188.354 126.86C185.834 129.38 183.874 132.18 181.984 135.19C179.534 139.11 177.224 143.17 174.774 147.09L173.654 148.84C173.514 148.77 173.374 148.63 173.094 148.49C172.674 149.33 172.254 150.17 171.834 150.94C170.504 150.45 168.964 150.45 168.474 148.35C169.874 144.64 171.414 140.72 172.954 136.87C175.334 131.06 177.854 125.25 180.094 119.37C183.524 110.76 186.744 102.22 190.174 93.61C191.644 89.76 193.324 85.98 194.864 82.2C195.074 81.57 195.494 81.15 196.054 80.73C195.704 81.71 195.354 82.55 195.074 83.53L195.704 84.58C196.194 83.25 196.684 82.13 197.244 80.8C197.804 81.57 197.944 82.13 197.454 82.83C196.894 83.67 196.334 84.58 195.774 85.56C195.564 85.91 195.424 86.33 195.144 87.17C196.544 86.05 196.404 84.09 198.154 83.88C198.924 84.23 198.854 84.79 198.574 85.49C197.944 87.24 197.384 89.06 196.684 90.88C195.074 95.01 193.394 99.21 191.714 103.27C191.294 104.46 190.594 105.51 190.034 106.7C189.194 108.87 188.424 111.04 187.514 113.28ZM194.514 123.99C194.024 124.62 194.444 125.11 194.794 125.46C195.354 124.83 195.284 124.48 194.514 123.99ZM411.08 90.32C411.71 91.86 411.5 93.26 410.17 94.45C408.63 94.66 408.63 94.66 407.79 93.26C406.39 93.19 406.39 93.19 405.83 91.16C403.87 90.32 401.77 90.11 399.74 89.9C394.49 89.41 389.24 89.06 383.99 88.64C381.33 88.43 378.6 88.22 375.94 87.87C374.4 87.66 372.93 87.17 371.39 86.82C367.68 86.05 363.9 86.26 360.19 86.33C357.04 86.4 353.89 86.54 350.74 86.75C349.69 86.82 348.57 87.17 347.52 87.31C346.61 87.38 345.77 87.38 344.86 87.38L311.75 87.59H307.2L305.87 89.69C300.34 99.49 295.09 109.43 290.19 119.58C289.28 121.47 288.16 123.36 287.25 125.32C285.92 128.33 284.52 131.27 283.26 134.28C280.53 140.58 277.87 146.88 275.28 153.18C272.76 159.2 270.45 165.22 268 171.31C266.74 174.32 265.48 177.33 264.15 180.34C263.94 180.97 263.59 181.53 263.1 182.3C262.33 180.83 261.56 179.64 261.98 178.03C261 179.08 261 180.76 259.53 181.39C258.83 181.11 258.41 180.62 258.48 179.78L259.32 171.94C260.37 171.17 260.02 169.98 260.23 169C260.37 168.23 260.37 167.53 259.95 166.76C259.6 166.27 259.81 165.43 259.74 164.8C259.11 151.71 255.47 139.88 245.6 130.57C239.93 125.32 233.56 121.05 226.42 117.97C222.29 116.15 217.95 114.68 213.75 113.07C211.09 112.02 208.36 110.97 205.63 109.99C204.02 109.36 202.27 108.94 200.66 108.31C199.26 107.75 197.79 107.26 196.53 106.42C194.71 105.23 194.5 104.04 195.2 102.01C196.04 99.91 197.37 98.23 199.54 97.39C201.36 96.62 203.18 95.92 205.07 95.29C206.19 94.94 207.31 95.01 208.5 95.5C209.13 95.71 209.76 95.78 210.53 95.5C211.86 95.08 213.33 94.94 214.73 94.59C215.36 94.38 215.99 94.03 216.76 93.68C216.41 93.19 216.34 92.98 216.2 92.7C216.34 92.56 216.48 92.42 216.69 92.35C218.3 91.93 219.84 91.51 221.45 91.23C226.14 90.46 230.83 89.76 235.59 89.83C236.5 89.83 237.41 89.41 238.25 89.13C238.81 88.99 239.37 88.71 239.93 88.5C239.65 88.43 239.37 88.29 239.09 88.22V87.94C241.05 87.8 243.01 87.66 244.97 87.45C246.23 87.31 247.63 87.45 248.54 86.82C251.13 85.28 254 85.7 256.73 85.21C257.57 85.07 258.48 85.42 259.32 85.63C259.46 85.7 259.53 86.05 259.67 86.4C262.26 85.84 264.92 85.49 267.37 84.65C270.03 83.74 272.69 83.74 275.35 83.88C276.05 83.95 276.68 83.95 277.38 83.74C276.96 83.6 276.54 83.39 276.12 83.25V82.9C280.32 82.62 284.59 82.27 288.79 81.92C289.35 82.34 289.84 82.76 290.26 83.11C293.41 82.83 296.42 82.55 299.43 82.34C300.06 82.27 300.62 81.71 301.32 82.27C302.3 81.22 303.7 81.57 304.82 81.08C305.94 79.61 306.99 78.14 308.18 76.74C308.53 76.18 309.02 75.76 309.58 75.34C310.63 74.5 311.33 74.57 312.38 75.34C312.87 75.69 313.36 76.04 313.92 76.53L313.36 77.09C313.57 77.37 313.71 77.79 313.99 78.14C314.2 78.42 314.55 78.63 314.83 78.77C314.69 79.54 314.55 80.1 314.48 80.66C314.76 80.73 314.9 80.87 315.11 80.87C316.51 80.94 317.84 80.87 319.24 80.94C323.86 81.01 328.41 81.57 332.89 82.41C333.52 82.48 334.22 82.62 334.78 82.55C340.45 81.85 346.05 81.64 351.58 82.83C352.28 82.97 352.98 83.11 353.61 83.04C355.64 82.83 357.53 83.88 359.63 83.39C359.42 83.25 359.28 83.11 358.93 82.83H375.17L373.7 82.06C374.47 81.92 374.96 81.78 375.38 81.78C378.11 81.85 380.77 81.99 383.5 82.13C384.41 82.2 385.32 82.48 386.23 82.9C387.28 83.46 388.61 83.67 389.8 83.81C391.27 83.95 392.74 83.95 394.14 83.74C396.45 83.46 398.55 83.95 400.65 84.58C401.49 84.86 402.33 85 403.52 85.28C402.89 84.79 402.61 84.51 402.26 84.23C402.47 84.16 402.61 84.09 402.68 84.09C405.76 84.37 408.14 85.98 410.03 88.29C410.45 88.85 410.8 89.62 411.08 90.32ZM370.62 85.49H373.91C372.86 85 372.72 85 370.62 85.49ZM374.12 85.49C375.1 86.33 376.15 86.12 377.27 85.63C376.22 85.28 375.24 84.86 374.12 85.49ZM377.83 85.42C378.81 85.98 379.51 85.91 380.28 85.42H377.83ZM299.5 90.6C299.92 89.83 300.27 89.13 300.76 88.08C300.13 88.01 299.78 88.01 299.43 88.01C292.92 88.43 286.34 88.71 279.76 89.27C272.97 89.9 266.18 90.74 259.39 91.44C255.61 91.86 251.83 92.14 248.05 92.77C241.4 93.89 234.75 95.15 228.17 96.55C221.24 98.02 214.31 99.63 207.45 101.17C206.96 101.31 206.47 101.24 205.7 101.31L207.73 99.98C205.28 100.61 202.97 101.45 200.52 102.78L202.62 103.55C204.58 104.25 206.61 104.88 208.57 105.58C213.61 107.54 219 108.73 223.69 111.67C225.37 112.72 227.4 113.28 229.29 114.05C235.73 116.71 241.4 120.56 246.65 125.04C247 125.39 247.28 125.74 247.63 126.02C248.26 126.65 248.89 127.14 249.52 127.7C250.57 128.75 251.97 129.66 252.67 130.92C253.65 132.6 255.05 133.86 256.24 135.33C257.57 136.87 258.62 138.62 258.69 140.58C259.04 141.07 259.32 141.35 259.6 141.77C262.19 145.97 263.59 150.66 264.22 155.56C264.57 158.15 264.85 160.67 265.13 163.26C266.11 161.65 266.81 159.97 267.51 158.29C269.05 154.23 271.29 150.45 272.76 146.32C274.16 142.47 275.84 138.69 277.45 134.84C284.1 119.79 291.52 105.02 299.5 90.6ZM233.42 92.63C231.67 92.98 229.99 93.47 228.24 93.96C228.31 94.1 228.31 94.24 228.38 94.38C228.87 94.31 229.5 94.31 229.99 94.17C231.6 93.75 233.14 93.26 234.75 93.61C237.27 94.1 239.72 93.19 242.24 93.26C243.15 93.33 244.06 92.98 244.97 92.84V92.63C244.34 92.42 243.64 92.21 242.66 92C244.2 91.51 245.46 91.09 246.72 90.74C248.68 89.97 250.92 90.04 253.02 88.92L251.27 88.29C249.03 88.85 246.93 89.34 244.76 89.83C244.83 90.04 244.83 90.25 244.9 90.39C243.99 91.09 242.8 90.95 241.75 91.09C238.95 91.58 236.15 92.07 233.42 92.63ZM241.61 123.5C242.87 124.97 243.71 125.39 245.11 125.46C243.15 123.71 243.15 123.71 241.61 123.5ZM317.26 113.28C315.79 117.06 314.39 120.91 312.92 124.69C312.85 125.04 312.78 125.32 312.57 126.02C315.3 124.2 317.05 121.54 320.13 121.05C319.85 121.4 319.5 121.61 318.87 122.24L323 121.54C323.98 121.4 324.47 121.54 325.1 122.38C326.22 124.06 326.78 125.95 326.43 127.98C326.15 130.01 325.73 131.97 325.24 134C323.7 139.53 322.23 145.13 320.69 150.66C319.99 153.18 319.15 155.7 318.38 158.22C318.1 158.99 317.82 159.69 317.4 160.67C317.12 160.04 316.77 159.69 316.35 159.06C316.07 159.76 315.79 160.25 315.44 160.74C315.37 160.81 315.23 160.74 315.16 160.74C315.16 160.46 315.09 160.18 315.16 159.97C315.51 159.2 315.79 158.43 316.35 157.73C317.47 156.12 317.82 154.16 318.45 152.34C319.22 150.1 320.06 147.86 320.76 145.55C321.11 144.22 321.95 142.96 321.88 141.42C321.81 140.37 322.51 139.46 322.79 138.48C323.7 135.68 324.68 132.81 324.68 129.87C324.75 128.47 324.61 127 324.54 125.6C323.77 126.16 323.98 126.93 323.84 127.7C323.14 131.69 321.95 135.54 320.76 139.39C319.15 144.5 317.61 149.61 316 154.72C315.86 155.42 315.51 156.05 315.16 157.1C315.16 156.19 315.16 155.63 315.23 154.65C314.53 156.12 313.9 157.38 313.2 158.92C313.13 158.29 313.06 158.01 313.06 157.73C313.9 155.42 314.67 153.04 315.37 150.66L316.63 146.32C317.61 142.89 318.73 139.46 319.64 136.1C320.34 133.58 320.69 130.92 321.18 128.47C321.39 127.35 321.39 126.23 320.83 125.25C319.64 125.32 318.87 126.16 318.1 126.86C315.58 129.38 313.62 132.18 311.73 135.19C309.28 139.11 306.97 143.17 304.52 147.09L303.4 148.84C303.26 148.77 303.12 148.63 302.84 148.49C302.42 149.33 302 150.17 301.58 150.94C300.25 150.45 298.71 150.45 298.22 148.35C299.62 144.64 301.16 140.72 302.7 136.87C305.08 131.06 307.6 125.25 309.84 119.37C313.27 110.76 316.49 102.22 319.92 93.61C321.39 89.76 323.07 85.98 324.61 82.2C324.82 81.57 325.24 81.15 325.8 80.73C325.45 81.71 325.1 82.55 324.82 83.53L325.45 84.58C325.94 83.25 326.43 82.13 326.99 80.8C327.55 81.57 327.69 82.13 327.2 82.83C326.64 83.67 326.08 84.58 325.52 85.56C325.31 85.91 325.17 86.33 324.89 87.17C326.29 86.05 326.15 84.09 327.9 83.88C328.67 84.23 328.6 84.79 328.32 85.49C327.69 87.24 327.13 89.06 326.43 90.88C324.82 95.01 323.14 99.21 321.46 103.27C321.04 104.46 320.34 105.51 319.78 106.7C318.94 108.87 318.17 111.04 317.26 113.28ZM324.26 123.99C323.77 124.62 324.19 125.11 324.54 125.46C325.1 124.83 325.03 124.48 324.26 123.99ZM342.012 150.87C340.262 150.87 338.722 150.1 337.112 149.54C337.252 149.33 337.392 149.19 337.532 148.91C336.132 147.93 335.362 146.32 333.612 145.76C333.192 145.62 332.912 145.06 332.562 144.71C332.072 144.15 331.582 143.52 331.162 142.96C330.952 142.68 330.882 142.33 330.812 142.05C330.742 141.42 330.742 140.86 330.672 140.23C329.342 140.16 327.802 141.28 326.612 139.6C326.682 139.11 326.682 138.48 326.752 137.78C327.242 137.43 327.732 137.08 328.222 136.66L328.152 136.73C329.622 136.8 331.162 136.87 332.492 136.03C332.912 135.82 333.402 135.61 333.682 135.26C335.012 133.79 336.552 132.53 338.232 131.48C339.702 130.43 341.102 129.31 342.152 127.84C342.572 127.21 343.062 126.72 343.622 126.3C344.812 125.39 346.002 124.55 347.192 123.78C348.662 122.8 350.202 121.96 351.742 121.12C352.722 120.56 353.702 120.56 354.682 121.12C355.312 121.47 355.942 121.75 356.502 122.03C356.222 122.24 355.522 121.61 355.592 122.8L356.502 122.03C358.532 123.08 358.952 124.41 358.042 126.44C357.482 127.7 356.642 128.68 355.662 129.59C352.932 132.11 349.782 134.07 346.562 135.96C343.412 137.78 339.982 138.9 336.762 140.3C336.412 140.44 335.992 140.58 335.712 140.72C335.782 144.43 337.882 146.11 343.202 146.53C342.992 146.32 342.922 146.11 342.712 145.9C344.182 145.62 345.582 145.48 346.912 145.06C348.242 144.71 349.572 144.08 351.042 143.59C351.602 143.94 352.302 144.43 353.002 144.99C354.332 146.04 354.332 147.79 352.932 148.56C350.342 150.1 347.542 150.87 344.532 150.87H342.012ZM340.332 134.14C342.992 133.16 346.072 131.2 347.332 129.87L347.122 129.03C344.532 130.5 342.292 132.18 340.332 134.14ZM334.102 142.33C334.172 141.77 334.242 141.42 334.312 141.07C333.682 141.35 333.892 141.77 334.102 142.33ZM416.806 189.16L415.896 188.04C415.686 188.32 415.476 188.67 415.196 189.02C414.986 188.88 414.846 188.81 414.706 188.67C414.566 188.39 414.496 187.9 414.286 187.83C413.516 187.62 413.516 186.92 413.446 186.43C413.376 185.38 413.726 184.19 413.236 183.42C412.746 182.58 413.166 181.67 412.606 180.9C412.466 180.69 412.676 180.13 412.746 179.78C412.816 179.15 412.956 178.52 412.956 177.89C412.186 179.22 412.186 179.22 412.186 180.55C412.186 181.53 412.186 182.51 412.046 183.49C411.766 180.76 410.646 178.1 410.926 174.88C411.276 175.86 411.556 176.56 411.976 177.61C412.326 176.21 412.256 175.3 412.046 174.39C411.346 171.59 410.576 168.93 409.596 166.27C408.476 163.33 407.916 160.32 407.076 157.31L405.676 152.06C405.116 154.23 406.516 155.77 406.166 157.52C404.416 151.78 402.736 146.11 401.056 140.51C400.496 138.76 400.356 136.87 399.656 135.19C397.626 130.43 396.366 125.39 394.826 120.42C394.476 119.37 394.266 118.25 394.056 117.2C393.846 116.01 393.706 114.82 392.866 113.91C392.656 113.7 392.586 113.35 392.446 113L388.246 100.33C387.476 98.16 388.036 96.13 389.016 94.17C389.716 94.52 390.416 94.8 390.976 95.15C391.956 95.85 392.796 96.69 393.216 97.95C394.266 101.38 395.456 104.81 396.506 108.24C397.276 110.69 397.976 113.14 398.676 115.59C398.676 115.73 398.746 115.87 398.746 116.01C398.186 118.81 400.216 120.77 401.126 123.08C401.686 124.41 402.036 125.81 402.386 127.21C403.366 130.92 404.346 134.7 405.256 138.48C405.676 140.3 405.956 142.19 406.306 144.08C406.376 144.43 406.586 144.71 406.726 145.13L407.706 144.36C410.016 152.83 412.396 161.23 414.846 169.98C416.806 165.43 418.556 161.23 420.446 157.1C420.866 156.12 421.636 155.28 421.986 154.23C422.966 151.64 424.366 149.33 425.556 146.88C426.326 145.2 427.376 143.59 427.376 141.63C428.286 141.14 427.726 140.16 428.146 139.53C428.566 138.76 428.986 137.99 429.406 137.29C433.606 129.66 438.436 122.45 443.616 115.45C444.456 114.26 445.506 113.14 446.416 111.95C447.606 110.27 448.656 108.59 449.916 106.98C451.526 104.74 453.136 102.5 454.956 100.4C458.666 95.99 462.446 91.58 466.226 87.24C467.136 86.19 468.256 85.35 469.236 84.37C470.776 82.83 472.246 81.22 473.786 79.68C473.856 79.68 473.926 79.75 473.996 79.82C473.506 80.45 473.016 81.01 472.456 81.64L473.156 83.04C474.556 81.08 475.956 79.26 477.146 77.3C479.316 73.94 481.906 71 484.916 68.34C486.036 67.36 487.016 66.17 488.066 65.12C488.486 64.77 488.486 64.77 489.466 65.12C490.796 63.65 492.196 62.18 493.666 60.78L504.796 50.49C507.526 47.9 510.186 45.31 513.266 43.21C514.806 42.16 516.346 41.18 517.886 40.27C520.056 38.87 522.296 38.87 524.606 39.71L525.586 39.92C525.656 39.08 525.376 38.45 524.746 38.17C524.256 37.96 523.626 37.82 523.066 37.89C520.896 38.31 518.586 38.17 516.556 39.57C516.696 39.36 516.766 39.01 516.906 38.94C518.376 38.17 519.846 37.33 521.386 36.77C524.046 35.86 525.166 36.42 526.426 38.87C526.496 39.01 526.566 39.22 526.706 39.43C527.266 39.71 527.826 39.99 528.386 40.34C528.596 40.48 528.736 40.69 528.806 40.76C529.366 43.35 528.386 45.1 526.286 46.36C525.166 47.06 524.116 47.97 522.926 48.81C522.506 48.53 522.226 48.25 521.806 47.9C522.086 47.62 522.296 47.41 522.506 47.13C522.366 46.85 522.226 46.57 521.946 45.87L524.186 43.84C524.186 43.63 524.116 43.07 523.976 42.23C523.136 42.44 522.436 42.51 521.806 42.72C519.566 43.49 517.676 44.89 515.786 46.29C512.986 48.32 510.396 50.49 507.666 52.66C507.246 53.01 506.896 53.5 506.686 54.13C507.176 53.92 507.666 53.71 508.156 53.43L508.296 53.64L507.666 54.48C495.486 65.19 484.286 76.81 473.366 88.71C471.616 90.6 469.726 92.35 467.976 94.17C467.696 94.45 467.346 94.73 467.136 95.08C465.526 98.16 462.866 100.54 460.766 103.34C456.706 108.8 452.506 114.19 448.376 119.65C446.976 121.54 445.576 123.43 443.966 125.18L444.176 124.13C444.036 124.06 443.966 124.06 443.896 123.99L440.606 128.33C440.326 128.68 440.046 129.17 439.976 129.8L442.566 127.63C442.636 127.63 442.706 127.7 442.776 127.7L441.936 129.1C437.036 136.52 432.626 144.15 428.496 152.06C428.146 152.69 427.096 152.83 427.306 153.74C424.506 159.55 419.956 171.66 418.486 177.47C417.996 179.5 417.506 181.53 417.996 183.7C418.346 185.17 418.206 186.71 417.576 188.11C417.436 188.46 417.156 188.74 416.806 189.16ZM471.336 86.61L471.896 85.63L471.686 85.42L471.126 86.4L471.336 86.61ZM429.896 147.86C432.276 141.98 435.986 136.73 438.926 131.13C438.506 131.41 438.156 131.76 437.876 132.18C436.476 134.49 435.216 136.94 433.676 139.11C432.346 141.14 431.156 143.31 430.106 145.48C429.756 146.18 429.616 146.95 429.406 147.65L429.896 147.86ZM404.766 150.66C405.116 148.77 404.416 147.16 403.436 145.55C403.926 147.23 404.346 148.98 404.766 150.66ZM470.595 122.03C469.895 122.59 469.265 122.1 468.635 121.05C468.285 121.05 467.935 121.26 467.795 121.12C467.515 121.05 467.235 120.63 467.305 120.35C467.375 119.02 467.725 117.69 468.845 116.78C469.895 116.92 470.385 117.55 470.665 118.67C471.085 117.9 471.575 117.62 472.345 117.97C472.485 118.6 472.835 119.23 472.555 119.93C472.065 120.84 471.295 121.47 470.595 122.03ZM464.015 153.67C461.425 155.14 458.625 154.3 457.645 151.5C456.875 149.47 457.085 147.37 457.225 145.27C457.645 140.44 459.745 136.17 462.055 131.97C462.545 131.06 462.895 130.15 463.385 129.24C463.875 128.19 464.575 127.14 465.485 126.3C465.765 126.58 466.815 126.86 467.165 127.14C466.465 127.77 465.765 128.26 464.855 129.03L465.625 129.52C465.905 129.24 466.185 128.96 466.395 128.68C466.675 128.26 467.305 128.82 467.445 128.26C467.655 127.84 468.005 127.63 468.425 127.84C468.845 129.1 468.775 129.45 467.935 130.22C467.585 130.57 467.305 130.92 467.025 131.41C466.535 132.18 466.115 133.09 465.555 133.93L465.275 133.16C464.295 135.19 463.315 136.94 462.545 138.9C462.265 139.53 462.405 140.37 462.405 141.14C462.405 141.42 462.475 141.77 462.405 141.98C461.845 143.24 461.845 144.57 461.705 145.9C461.495 147.58 461.705 149.26 462.195 150.94C462.195 151.15 462.335 151.36 462.475 151.57C463.455 151.5 464.085 151.15 464.505 150.38C464.295 150.24 464.085 150.24 464.085 150.24L466.185 148.42C466.675 148.91 465.555 149.12 465.485 149.82C466.255 150.03 467.165 150.03 468.145 149.96C467.655 150.52 467.375 151.08 467.025 151.43C466.185 152.13 465.275 152.69 464.505 153.32C464.295 153.46 464.155 153.6 464.015 153.67ZM526.344 87.45C528.864 87.38 530.404 89.2 529.634 91.58C528.374 95.71 526.344 99.49 524.244 103.2C521.164 108.59 517.944 113.91 514.234 118.95C514.024 119.23 513.814 119.58 513.674 119.93C510.804 126.65 508.214 133.51 506.044 140.51C506.044 140.58 506.044 140.72 505.974 141C506.744 141.84 507.514 142.75 508.284 143.66C507.514 146.53 506.184 148.98 504.434 151.15C503.384 152.48 502.334 152.62 500.794 151.85C500.654 151.78 500.444 151.57 500.304 151.64C499.674 151.78 499.114 151.57 498.834 151.08C498.554 150.52 498.414 149.89 498.484 149.26C498.694 147.58 498.834 145.83 499.324 144.22C499.954 142.05 500.794 139.88 501.494 137.78C501.774 137.01 501.984 136.31 501.984 135.4C501.564 135.82 501.144 136.24 500.794 136.66C496.734 141.28 492.604 145.69 487.774 149.47C486.024 150.87 484.134 152.06 482.034 152.83C479.934 153.67 478.044 152.9 476.224 152.06C475.104 151.5 474.824 150.45 474.894 149.12C475.174 145.41 476.784 142.19 478.814 139.18C483.434 132.39 489.384 127.21 497.014 123.92C499.394 122.94 501.914 122.24 504.644 122.38C506.534 119.65 508.774 117.2 510.034 114.12C511.574 110.48 513.324 106.91 515.074 103.41C515.984 101.59 517.034 99.84 518.154 98.16C518.574 97.46 519.414 97.18 519.834 96.27C520.954 94.1 522.284 92.07 523.124 89.76C523.684 88.15 524.384 87.45 525.854 86.33L526.344 87.45ZM481.264 146.18C487.984 141.91 493.024 136.31 497.854 130.57C492.744 132.39 484.204 139.81 481.264 146.18ZM495.684 136.03C498.694 132.74 498.834 132.6 498.974 131.2C496.104 134 493.654 136.87 491.414 139.95L491.764 140.3C493.094 138.9 494.354 137.43 495.684 136.03ZM484.274 136.66L483.924 137.85C484.204 137.64 484.904 137.57 484.274 136.66ZM483.784 137.99C483.434 138.06 483.014 137.99 483.364 138.69C483.504 138.41 483.644 138.27 483.784 137.99ZM481.474 141C481.404 140.93 481.264 140.93 481.194 140.86C481.054 141.14 480.984 141.35 480.914 141.63L481.474 141ZM480.144 143.52L480.704 141.91C480.144 142.19 480.004 142.75 479.794 143.31L480.144 143.52ZM479.234 145.06C479.374 145.06 479.444 144.99 479.514 144.99L479.304 144.29C479.234 144.36 479.094 144.36 479.024 144.43L479.234 145.06ZM530.343 150.87C528.593 150.87 527.053 150.1 525.443 149.54C525.583 149.33 525.723 149.19 525.863 148.91C524.463 147.93 523.693 146.32 521.943 145.76C521.523 145.62 521.243 145.06 520.893 144.71C520.403 144.15 519.913 143.52 519.493 142.96C519.283 142.68 519.213 142.33 519.143 142.05C519.073 141.42 519.073 140.86 519.003 140.23C517.673 140.16 516.133 141.28 514.943 139.6C515.013 139.11 515.013 138.48 515.083 137.78C515.573 137.43 516.063 137.08 516.553 136.66L516.483 136.73C517.953 136.8 519.493 136.87 520.823 136.03C521.243 135.82 521.733 135.61 522.013 135.26C523.343 133.79 524.883 132.53 526.563 131.48C528.033 130.43 529.433 129.31 530.483 127.84C530.903 127.21 531.393 126.72 531.953 126.3C533.143 125.39 534.333 124.55 535.523 123.78C536.993 122.8 538.533 121.96 540.073 121.12C541.053 120.56 542.033 120.56 543.013 121.12C543.643 121.47 544.273 121.75 544.833 122.03C544.553 122.24 543.853 121.61 543.923 122.8L544.833 122.03C546.863 123.08 547.283 124.41 546.373 126.44C545.813 127.7 544.973 128.68 543.993 129.59C541.263 132.11 538.113 134.07 534.893 135.96C531.743 137.78 528.313 138.9 525.093 140.3C524.743 140.44 524.323 140.58 524.043 140.72C524.113 144.43 526.213 146.11 531.533 146.53C531.323 146.32 531.253 146.11 531.043 145.9C532.513 145.62 533.913 145.48 535.243 145.06C536.573 144.71 537.903 144.08 539.373 143.59C539.933 143.94 540.633 144.43 541.333 144.99C542.663 146.04 542.663 147.79 541.263 148.56C538.673 150.1 535.873 150.87 532.863 150.87H530.343ZM528.663 134.14C531.323 133.16 534.403 131.2 535.663 129.87L535.453 129.03C532.863 130.5 530.623 132.18 528.663 134.14ZM522.433 142.33C522.503 141.77 522.573 141.42 522.643 141.07C522.013 141.35 522.223 141.77 522.433 142.33ZM553.673 151.29C549.403 152.55 546.603 149.12 546.323 146.32C546.253 145.27 546.323 144.15 546.533 143.17C547.373 139.25 548.843 135.61 551.433 132.53C552.693 131.06 553.743 129.52 555.073 128.12C555.913 127.28 557.033 126.51 558.083 125.95C558.923 125.46 559.483 124.9 559.903 124.06C560.813 122.03 562.773 121.4 564.663 121.19C565.853 120.98 566.553 122.03 566.903 122.8C567.743 123.29 568.443 123.5 568.723 123.92C569.213 124.76 569.843 125.81 569.353 126.79C568.793 127.91 569.073 128.82 569.283 129.94C569.983 132.6 570.123 135.33 569.843 138.06C569.633 140.3 568.653 142.19 567.533 144.08C566.063 146.6 563.823 148.77 561.233 150.24C559.483 149.82 557.803 149.68 556.123 150.38C555.353 150.73 554.513 151.08 553.673 151.29ZM549.473 140.58C550.593 138.62 552.343 137.29 554.093 135.96C555.283 135.05 556.403 134.14 557.243 132.81C557.803 131.97 558.643 131.34 559.413 130.64C560.183 129.94 561.023 129.24 561.793 128.47C562.423 127.84 562.983 127.07 563.683 126.16L563.123 125.39C562.073 126.09 561.093 126.72 560.113 127.42C557.593 129.1 555.913 131.69 553.533 133.65C551.433 135.4 550.593 138.13 549.473 140.58ZM554.233 148.56C555.143 148.35 555.983 148 556.963 147.86C558.783 147.51 560.183 146.53 561.303 145.06C562.563 143.38 564.313 142.12 565.153 140.16C565.223 140.02 565.643 140.09 565.993 140.09C567.253 138.41 566.903 136.31 566.763 134C566.203 135.61 565.713 137.01 565.293 138.41C566.203 134.84 565.993 131.41 564.663 127.63L564.383 128.96C564.243 128.75 564.103 128.54 564.033 128.33H563.683C561.163 129.94 558.923 132.11 556.753 134.28C555.073 135.89 553.953 137.85 552.763 139.81C551.503 141.77 550.803 144.01 551.363 146.53C552.553 146.74 553.673 146.88 554.793 147.09C554.793 147.16 554.793 147.23 554.723 147.3H551.643C552.273 148.49 553.043 148.91 554.233 148.56Z" fill="white"/>
</svg>
